<?xml version="1.0" encoding="UTF-8"?><svg id="Layer_1" xmlns="http://www.w3.org/2000/svg" viewBox="0 0 683.64 603.95"><defs><style>.cls-1{fill:#fff;}.cls-2{fill:#ffc836;}.cls-3{fill:#0a0094;}</style></defs><path class="cls-1" d="M677.69,279.77L528.98,22.2c-7.93-13.74-22.59-22.2-38.45-22.2H193.11c-15.86,0-30.52,8.46-38.45,22.2L5.95,279.77c-7.93,13.74-7.93,30.66,0,44.4l78.79,136.47,69.92,121.1c7.93,13.74,22.59,22.2,38.45,22.2H490.53c15.86,0,30.52-8.46,38.45-22.2l69.92-121.1,78.79-136.47c7.93-13.74,7.93-30.66,0-44.4Z"/><path class="cls-1" d="M577.83,582.69c0-2.94,.56-5.7,1.67-8.28,1.12-2.58,2.63-4.83,4.55-6.75,1.92-1.92,4.17-3.43,6.75-4.55,2.58-1.12,5.34-1.67,8.28-1.67s5.7,.56,8.28,1.67c2.58,1.12,4.83,2.63,6.75,4.55,1.92,1.92,3.44,4.17,4.55,6.75,1.12,2.58,1.67,5.34,1.67,8.28s-.56,5.7-1.67,8.28c-1.12,2.58-2.63,4.84-4.55,6.75-1.92,1.92-4.17,3.43-6.75,4.55-2.58,1.12-5.34,1.67-8.28,1.67s-5.7-.56-8.28-1.67c-2.58-1.12-4.83-2.63-6.75-4.55-1.92-1.92-3.44-4.17-4.55-6.75-1.12-2.58-1.67-5.34-1.67-8.28Zm38.28,0c0-2.39-.45-4.64-1.35-6.75-.9-2.11-2.11-3.95-3.64-5.52-1.53-1.57-3.33-2.81-5.4-3.73-2.08-.92-4.29-1.38-6.63-1.38s-4.56,.46-6.64,1.38c-2.08,.92-3.87,2.16-5.4,3.73-1.53,1.57-2.74,3.41-3.64,5.52-.9,2.11-1.35,4.37-1.35,6.75s.45,4.64,1.35,6.75c.9,2.11,2.11,3.95,3.64,5.52,1.53,1.57,3.33,2.81,5.4,3.73,2.07,.92,4.29,1.38,6.64,1.38s4.56-.46,6.63-1.38c2.07-.92,3.87-2.16,5.4-3.73,1.53-1.56,2.74-3.41,3.64-5.52,.9-2.11,1.35-4.36,1.35-6.75Zm-25.07,12.39v-24.78h9.39c5.68,0,8.51,2.33,8.51,6.99,0,1.17-.17,2.17-.5,3-.33,.82-.79,1.51-1.38,2.05-.59,.55-1.26,.97-2.03,1.26-.76,.29-1.58,.5-2.44,.62l7.1,10.86h-4.7l-7.1-10.74h-2.99v10.74h-3.88Zm3.88-21.25v6.99h4.4c1.92,0,3.36-.28,4.32-.85,.96-.57,1.44-1.52,1.44-2.85,0-1.14-.42-1.97-1.26-2.49-.84-.53-1.93-.79-3.26-.79h-5.64Z"/><path class="cls-2" d="M677.69,279.77l-57.63-99.82h-25.3v243.21h25.77l57.16-99c7.93-13.74,7.93-30.66,0-44.4Z"/><path class="cls-2" d="M63.58,179.96h0L5.95,279.77c-7.93,13.74-7.93,30.66,0,44.4l25.95,44.94,31.21,54.05h24.55V179.96h-24.07Z"/><path class="cls-2" d="M528.98,22.2C521.05,8.46,506.39,0,490.53,0H193.11C177.25,0,162.59,8.46,154.66,22.2l-69.42,120.24H598.4l-69.42-120.24Z"/><path class="cls-2" d="M598.9,460.65H84.74l69.92,121.1c7.93,13.74,22.59,22.2,38.45,22.2H490.53c15.86,0,30.52-8.46,38.45-22.2l69.92-121.1h0Z"/><g><path class="cls-3" d="M125.16,179.34h35.26l33.39,141.78V179.34h32.64v244.44h-35.26l-32.14-137.29v137.29h-33.89V179.34Z"/><path class="cls-3" d="M340.18,337.07l11.46,86.71h-35.63l-5.26-51.83h-28.26l-5.35,51.83h-35.51l11.46-86.34,19.44-158.1h48.34l19.31,157.73Zm-33.03,0l-10.57-101.66-10.49,101.66h21.06Z"/><path class="cls-3" d="M561.9,337.07l11.46,86.71h-35.63l-5.26-51.83h-28.26l-5.35,51.83h-35.51l11.46-86.34,19.44-158.1h48.34l19.31,157.73Zm-33.03,0l-10.57-101.66-10.49,101.66h21.06Z"/><path class="cls-3" d="M366.82,179.34l47.27,.12c31.31,0,46.97,17.11,46.97,51.33v54.97c0,25.25-11.26,41.53-33.76,48.84-5.4,1.74-11.02,2.62-21.32,2.62h-3.9v86.56h-35.26V179.34Zm35.26,34.76v88.23h4.04c4.9,0,8.26-.33,10.09-1,6.39-2.57,11.42-7.77,11.42-15.57v-54.97c0-11.13-6.93-16.69-17.15-16.69h-8.4Z"/></g></svg>