<?xml version="1.0" encoding="UTF-8"?>
<!-- Generator: Adobe Illustrator 26.0.1, SVG Export Plug-In . SVG Version: 6.00 Build 0)  -->
<svg version="1.1" id="Layer_1" xmlns="http://www.w3.org/2000/svg" xmlns:xlink="http://www.w3.org/1999/xlink" x="0px" y="0px" viewBox="0 0 524.53 198.73" style="enable-background:new 0 0 524.53 198.73;" xml:space="preserve">
<style type="text/css">
	.st0{fill:#1C2B39;}
	.st1{fill:#3B9E87;}
</style>
<g>
	<g>
		<g>
			<path class="st0" d="M133.79,121.46l-2.55-1.87l-2.3-1.68l-1.57,2.37c-1.35,2.04-2.92,3.95-4.66,5.69     c-3.38,3.38-7.32,6.04-11.7,7.89c-4.53,1.92-9.35,2.89-14.33,2.89c-4.97,0-9.79-0.97-14.33-2.89c-4.38-1.85-8.32-4.51-11.7-7.89     c-3.38-3.38-6.04-7.32-7.89-11.7c-1.92-4.53-2.89-9.35-2.89-14.33c0-4.97,0.97-9.79,2.89-14.33c1.85-4.38,4.51-8.32,7.89-11.7     c3.38-3.38,7.32-6.04,11.7-7.89c4.53-1.92,9.35-2.89,14.33-2.89c4.97,0,9.79,0.97,14.33,2.89c4.25,1.8,8.1,4.36,11.42,7.61     l1.9,1.86l1.9-1.85l2.27-2.21l2-1.94l-1.99-1.95c-8.54-8.39-19.85-13.02-31.83-13.02c-12.13,0-23.54,4.72-32.11,13.3     c-8.58,8.58-13.3,19.98-13.3,32.11c0,12.13,4.72,23.54,13.3,32.11c8.58,8.58,19.98,13.3,32.11,13.3     c15.19,0,29.31-7.55,37.77-20.19l1.45-2.17L133.79,121.46z"/>
			<path class="st1" d="M144.74,51.97C132.03,39.42,115.2,32.5,97.33,32.5c-9.1,0-17.94,1.78-26.25,5.3     c-8.03,3.4-15.24,8.26-21.44,14.45S38.59,65.66,35.19,73.7c-3.52,8.32-5.3,17.15-5.3,26.25s1.78,17.94,5.3,26.25     c3.4,8.03,8.26,15.24,14.45,21.44s13.41,11.06,21.44,14.45c8.32,3.52,17.15,5.3,26.25,5.3c12.93,0,25.49-3.67,36.33-10.61     l2.38-1.53l-1.62-2.32l-3.3-4.74l-1.49-2.14l-2.2,1.4c-2.6,1.65-5.37,3.1-8.22,4.31c-6.93,2.93-14.29,4.42-21.88,4.42     c-7.59,0-14.96-1.49-21.88-4.42c-6.69-2.83-12.71-6.89-17.87-12.05c-5.17-5.17-9.22-11.18-12.05-17.87     c-2.93-6.93-4.42-14.29-4.42-21.88s1.49-14.96,4.42-21.88c2.83-6.69,6.89-12.71,12.05-17.87c5.17-5.17,11.18-9.22,17.87-12.05     c6.93-2.93,14.29-4.42,21.88-4.42c7.59,0,14.96,1.49,21.88,4.42c6.53,2.76,12.41,6.69,17.49,11.68l1.87,1.83l1.9-1.79l4.21-3.96     l2.05-1.93L144.74,51.97z"/>
		</g>
		<g>
			<g>
				<g>
					<g>
						<g>
							<path class="st0" d="M213.4,89.54V53.56h15.22c1.75,0,3.39,0.21,4.9,0.62c1.51,0.41,2.91,1.04,4.18,1.88         c1.27,0.84,2.28,2.01,3.02,3.51c0.74,1.5,1.11,3.24,1.11,5.24c0,3.1-1.07,5.65-3.2,7.66c-2.13,2.01-4.75,3.1-7.84,3.28         c0.31,0.34,0.99,1.63,2.04,2.75c1.05,1.12,1.85,1.94,2.4,2.48c0.55,0.53,1.28,1.18,2.19,1.93c0.91,0.76,1.78,1.3,2.61,1.63         c0.83,0.33,1.65,0.49,2.48,0.49c1.51,0,2.92-0.33,4.23-0.98l0.57,4.33c-1.79,0.89-3.66,1.34-5.62,1.34         c-1.79,0-3.61-0.58-5.47-1.73c-1.86-1.15-3.38-2.45-4.67-3.82c-1.45-1.55-3.23-3.45-4.27-4.81         c-1.18-1.56-1.65-2.27-2.23-3.14h-6.27v13.32H213.4z M229.18,58.26h-10.42v12.96h10.42c2.03,0,3.71-0.34,5.03-1.53         c1.32-1.19,1.99-2.78,1.99-4.77c0-2.17-0.65-3.82-1.96-4.95C232.93,58.82,231.25,58.26,229.18,58.26z"/>
						</g>
						<g>
							<rect x="394.06" y="53.52" class="st0" width="5.02" height="36.12"/>
						</g>
						<g>
							<path class="st0" d="M337.94,89.64h5.58l-16.9-36.07h-4.79l-17.19,36.07h5.58l13.95-29.57L337.94,89.64z"/>
						</g>
						<g>
							<path class="st0" d="M417.18,53.56h-5.58l16.9,36.07h4.79l17.19-36.07h-5.58l-13.95,29.57L417.18,53.56z"/>
						</g>
					</g>
					<g>
						<path class="st0" d="M194.37,79.62c-3.94,4.08-8.13,5.9-13.59,5.9c-7.58,0-15.26-4.8-15.26-13.99        c0-7.79,6.25-13.89,14.22-13.89c5.16,0,9.6,1.81,13.99,5.69l0.3,0.27l3.57-3.46l-0.31-0.31c-4.63-4.68-10.62-7.15-17.32-7.15        c-11.1,0-19.47,8.15-19.47,18.96c0,10.96,8.43,18.91,20.04,18.91c7.14,0,12.15-2.07,17.27-7.15l0.29-0.29l-3.41-3.81        L194.37,79.62z"/>
					</g>
					<g>
						<polygon class="st0" points="293.43,84.62 267.56,84.62 267.56,76.26 280.61,76.26 280.61,71.24 267.56,71.24 267.56,58.58         292.4,58.58 292.4,53.56 262.5,53.56 262.5,89.64 293.43,89.64       "/>
					</g>
					<g>
						<polygon class="st0" points="379.35,53.56 348.55,53.56 348.55,58.58 361.42,58.58 361.42,89.64 366.43,89.64 366.43,58.58         379.35,58.58       "/>
					</g>
				</g>
			</g>
			<g>
				<path class="st1" d="M324.21,70.32c-2,0-3.61,1.62-3.61,3.61c0,2,1.62,3.61,3.61,3.61s3.61-1.62,3.61-3.61      C327.82,71.94,326.2,70.32,324.21,70.32z"/>
			</g>
			<g>
				<polygon class="st0" points="491.91,84.62 466.04,84.62 466.04,76.26 479.09,76.26 479.09,71.24 466.04,71.24 466.04,58.58       490.87,58.58 490.87,53.56 460.97,53.56 460.97,89.64 491.91,89.64     "/>
			</g>
		</g>
		<g>
			<g>
				<g>
					<g>
						<g>
							<g>
								<path class="st0" d="M194.37,145.16c-3.94,4.08-8.13,5.9-13.59,5.9c-7.58,0-15.26-4.8-15.26-13.99          c0-7.79,6.25-13.89,14.22-13.89c5.16,0,9.6,1.81,13.99,5.69l0.3,0.27l3.57-3.46l-0.31-0.31          c-4.63-4.68-10.62-7.15-17.32-7.15c-11.1,0-19.47,8.15-19.47,18.96c0,10.96,8.43,18.91,20.04,18.91          c7.14,0,12.15-2.07,17.27-7.15l0.29-0.29l-3.41-3.81L194.37,145.16z"/>
							</g>
							<g>
								<path class="st0" d="M312.82,145.16c-3.94,4.08-8.13,5.9-13.59,5.9c-7.58,0-15.26-4.8-15.26-13.99          c0-7.79,6.25-13.89,14.22-13.89c5.16,0,9.6,1.81,13.99,5.69l0.3,0.27l3.57-3.46l-0.31-0.31          c-4.63-4.68-10.62-7.15-17.32-7.15c-11.1,0-19.47,8.15-19.47,18.96c0,10.96,8.43,18.91,20.04,18.91          c7.14,0,12.15-2.07,17.27-7.15l0.29-0.29l-3.41-3.81L312.82,145.16z"/>
							</g>
							<g>
								<polygon class="st0" points="335.2,119.1 330.18,119.1 330.18,155.18 357.4,155.18 357.4,150.16 335.2,150.16         "/>
							</g>
						</g>
					</g>
					<g>
						<rect x="213.38" y="118.98" class="st0" width="5.02" height="36.12"/>
					</g>
				</g>
			</g>
			<g>
				<polygon class="st0" points="398.56,150.16 372.68,150.16 372.68,141.8 385.74,141.8 385.74,136.78 372.68,136.78       372.68,124.12 397.52,124.12 397.52,119.1 367.62,119.1 367.62,155.18 398.56,155.18     "/>
			</g>
			<g>
				<path class="st0" d="M236.15,155.08V119.1h15.22c1.75,0,3.39,0.21,4.9,0.62c1.51,0.41,2.91,1.04,4.18,1.88      c1.27,0.84,2.28,2.01,3.02,3.51c0.74,1.5,1.11,3.24,1.11,5.24c0,3.1-1.07,5.65-3.2,7.66c-2.13,2.01-4.75,3.1-7.84,3.28      c0.31,0.34,0.99,1.63,2.04,2.75c1.05,1.12,1.85,1.94,2.4,2.48c0.55,0.53,1.28,1.18,2.19,1.93c0.91,0.76,1.78,1.3,2.61,1.63      c0.83,0.33,1.65,0.49,2.48,0.49c1.51,0,2.92-0.33,4.23-0.98l0.57,4.33c-1.79,0.89-3.66,1.34-5.62,1.34      c-1.79,0-3.61-0.58-5.47-1.73c-1.86-1.15-3.38-2.45-4.67-3.82c-1.45-1.55-3.23-3.45-4.27-4.81c-1.18-1.56-1.65-2.27-2.23-3.14      h-6.27v13.32H236.15z M251.93,123.8h-10.42v12.96h10.42c2.03,0,3.71-0.34,5.03-1.53c1.32-1.19,1.99-2.78,1.99-4.77      c0-2.17-0.65-3.82-1.96-4.95C255.68,124.36,254,123.8,251.93,123.8z"/>
			</g>
		</g>
	</g>
	<g>
		<g>
			<g>
				<path class="st0" d="M404.84,109.31c-2.42,0-4.39,1.95-4.39,4.39c0,2.42,1.97,4.39,4.39,4.39c2.44,0,4.39-1.97,4.39-4.39      C409.23,111.26,407.29,109.31,404.84,109.31z M404.84,117.36c-2.03,0-3.66-1.66-3.66-3.66c0-2.05,1.63-3.66,3.66-3.66      c2.03,0,3.66,1.61,3.66,3.66C408.51,115.71,406.87,117.36,404.84,117.36z"/>
			</g>
			<g>
				<path class="st0" d="M406.89,112.73c0-0.93-0.85-1.53-1.7-1.53h-2.05v5.03h0.77v-1.99h0.81l1.3,1.99h0.93l-1.35-2.01      C405.9,114.22,406.89,113.85,406.89,112.73z M403.91,113.58v-1.74h1.28c0.43,0,0.91,0.33,0.91,0.89c0,0.52-0.48,0.85-0.91,0.85      H403.91z"/>
			</g>
		</g>
	</g>
</g>
</svg>