<?xml version="1.0" encoding="UTF-8"?> <svg xmlns="http://www.w3.org/2000/svg" xmlns:xlink="http://www.w3.org/1999/xlink" width="155" height="34.337" viewBox="0 0 155 34.337"><defs><clipPath id="clip-path"><rect id="Rectangle_1049" data-name="Rectangle 1049" width="155" height="34.337" fill="#1e3263"></rect></clipPath></defs><g id="Group_809" data-name="Group 809" clip-path="url(#clip-path)"><path id="Path_898" data-name="Path 898" d="M12.872,11.136l0-.014a3.96,3.96,0,0,0-.493-3.777A3.817,3.817,0,0,0,9.352,5.831h-9v3.6H2.974v-.98H9.352a1.177,1.177,0,0,1,1.176,1.174v.1A1.182,1.182,0,0,1,9.46,10.89L.487,10.9H.349v7.68H2.978V13.516l8.567,0,.039,0a1.22,1.22,0,0,1,1.162,1.221v3.848h2.621V14.735a3.843,3.843,0,0,0-2.494-3.6" transform="translate(0.19 3.179)" fill="#1e3263"></path><path id="Path_899" data-name="Path 899" d="M15.035,11.683h9.479v-2.6h-12.1v7.751H25.834V14.211h-10.8Z" transform="translate(6.767 4.951)" fill="#1e3263"></path><path id="Path_900" data-name="Path 900" d="M12.409,9.448h2.625V8.467h10.8V5.848H12.409Z" transform="translate(6.767 3.189)" fill="#1e3263"></path><path id="Path_901" data-name="Path 901" d="M26.5,5.851H22.285l8.882,7.013V18.6h2.608v-7L26.533,5.881Z" transform="translate(12.152 3.191)" fill="#1e3263"></path><path id="Path_902" data-name="Path 902" d="M37.459,5.851h-4.2L29.161,9.1l2.1,1.663Z" transform="translate(15.902 3.191)" fill="#1e3263"></path><path id="Path_903" data-name="Path 903" d="M46.574,5.886h-2.61v6.439l2.61,1.686Z" transform="translate(23.974 3.209)" fill="#1e3263"></path><path id="Path_904" data-name="Path 904" d="M51.084,15.747,35.694,5.773l.009.263V18.618h2.61V10.607l12.771,8.246Z" transform="translate(19.465 3.148)" fill="#1e3263"></path><path id="Path_905" data-name="Path 905" d="M61.668,17.243a5.772,5.772,0,0,0,2.221-4.964c0-.1,0-.192,0-.286l0-.043A5.729,5.729,0,0,0,61.909,7.5l-.019-.015c-.045-.037-.091-.074-.139-.11l-.04-.031-.128-.093-.045-.032-.175-.116c-.082-.053-.167-.1-.25-.151a10.279,10.279,0,0,0-5.183-1.068,10.275,10.275,0,0,0-5.183,1.068c-.085.048-.17.1-.252.151l-.175.116-.043.032c-.045.031-.087.062-.13.094l-.04.029c-.046.036-.094.073-.139.111L49.95,7.5a5.558,5.558,0,0,0-1.938,3.927L48,11.582h2.5l.121,0,.015-.117.011-.073c.006-.04.014-.082.022-.122l.023-.122c.41-1.884,1.929-2.652,5.245-2.652s4.834.768,5.243,2.652c.008.04.017.08.025.122s.014.079.02.121l.019.124c.008.057.014.113.02.173l0,.053,0,.023c.006.071.011.144.015.218v.036c0,.088.006.176.006.267s0,.2-.006.292c-.093,2.1-1.037,3.5-5.348,3.5-2.931,0-4.954-.505-5.3-2.972l-.017-.119H48l.014.151a5.5,5.5,0,0,0,2.18,4.115c.1.071.2.142.3.209.083.053.167.1.252.151a10.275,10.275,0,0,0,5.183,1.068A10.279,10.279,0,0,0,61.114,17.6c.083-.048.167-.1.25-.151.105-.068.207-.138.3-.209" transform="translate(26.174 3.211)" fill="#1e3263"></path><rect id="Rectangle_1046" data-name="Rectangle 1046" width="2.61" height="12.781" transform="translate(93.705 9)" fill="#1e3263"></rect><rect id="Rectangle_1047" data-name="Rectangle 1047" width="8.093" height="2.61" transform="translate(97.71 19.17)" fill="#1e3263"></rect><path id="Path_906" data-name="Path 906" d="M81.62,7.1a9.879,9.879,0,0,0-5.433-1.219H70.069v2.6h6.118A7.685,7.685,0,0,1,80.1,9.2a3.248,3.248,0,0,1,1.443,3.067A3.247,3.247,0,0,1,80.1,15.333a7.666,7.666,0,0,1-3.911.722H72.673V9.875h-2.6v8.784h6.118a9.878,9.878,0,0,0,5.433-1.221,5.7,5.7,0,0,0,2.525-5.171A5.7,5.7,0,0,0,81.62,7.1" transform="translate(38.21 3.204)" fill="#1e3263"></path><path id="Path_907" data-name="Path 907" d="M95.538,12.082h.006l-.1-.24c-.008-.02-.017-.04-.025-.062l-.042-.091-.04-.083c-.019-.037-.037-.074-.057-.11a.476.476,0,0,0-.026-.048l-.009-.017-.046-.08c-.012-.022-.025-.043-.039-.063s-.036-.057-.054-.085l-.011-.019-.023-.034c-.029-.043-.06-.085-.09-.127l-.025-.032-.012-.015c-.022-.028-.043-.056-.066-.083l-.04-.049c-.025-.029-.049-.057-.074-.085l-.036-.04c-.036-.04-.073-.079-.111-.117l-.023-.022c-.032-.032-.065-.063-.1-.094l-.037-.034-.1-.083-.032-.026c-.087-.071-.179-.141-.272-.2l-.028-.019c-.04-.026-.08-.053-.122-.077l-.026-.017c-.1-.06-.2-.117-.309-.167l-.015-.008c-.048-.023-.1-.045-.145-.066l-.023-.009a3.738,3.738,0,0,0-.51-.173l-.025-.006c-.054-.014-.108-.026-.164-.039l-.011,0A3.549,3.549,0,0,0,92.32,9.5l-.029,0c-.053,0-.105-.009-.168-.012l-.019,0q-.093,0-.185,0L84.6,9.483a1.211,1.211,0,0,1-1.178-.927l-.026-.1H80.78l.012.148a3.785,3.785,0,0,0,.184.881H80.97l.074.187.017.042.029.071.042.093.04.083c.019.036.037.073.057.11.011.02.022.04.036.063s.029.054.046.082.025.042.039.063.036.057.054.085l.034.053.09.127.037.046c.022.029.043.057.066.085s.028.032.04.049.049.057.074.083l.036.04c.036.04.073.08.111.117l.023.023c.032.032.065.063.1.093l.037.034.1.083.032.026c.087.073.178.141.272.206l.028.017c.04.028.08.053.122.079l.026.015c.1.062.206.117.309.168l.015.008c.048.023.1.045.153.07l.015.006c.1.043.206.08.308.114l.034.009,0,0,.014,0c.049.015.1.029.151.043l.023.006c.054.014.108.026.164.037l.011,0c.119.023.241.042.363.056l.029,0c.053,0,.105.009.167.012h.02c.062,0,.124.006.185.006l7.323-.006a1.213,1.213,0,0,1,0,2.426H81.049v2.6H91.956c.045,0,.09,0,.134,0,.019,0,.036,0,.053,0h.017l.108-.009c.023,0,.046,0,.068-.006.043,0,.085-.009.127-.015l.045-.006c.056-.009.11-.019.164-.029l.056-.012L92.84,17l.06-.015c.039-.011.079-.022.117-.034l.046-.014c.053-.015.105-.034.156-.053l.045-.017.113-.045.056-.023.1-.046.051-.025c.048-.023.1-.048.142-.073l.04-.023c.034-.019.07-.039.1-.06s.039-.022.057-.034l.085-.054.057-.039c.031-.022.063-.043.094-.066l.068-.051.09-.071.048-.04.011-.009c.023-.019.045-.037.066-.057s.039-.036.059-.054.042-.039.063-.059.054-.054.082-.082.048-.051.073-.077.034-.037.049-.056l.008-.009.049-.056c.019-.023.039-.045.057-.07l.048-.06.053-.068.026-.039c.037-.051.073-.1.11-.161l.032-.049.049-.082.032-.057c.015-.028.031-.056.046-.085l.028-.053c.026-.051.053-.1.076-.158l.006-.012.023-.049.036-.087.087-.219h0a3.814,3.814,0,0,0,0-2.425" transform="translate(44.051 4.609)" fill="#1e3263"></path><path id="Path_908" data-name="Path 908" d="M84.523,8.469h.011l9.453,0v-2.6H84.535l-.037,0-.136,0a.343.343,0,0,1-.057,0h-.011c-.037,0-.073.006-.11.009l-.066.006-.127.017-.045,0c-.056.008-.11.019-.164.031l-.056.012c-.037.006-.076.017-.113.026l-.06.015c-.04.008-.079.022-.117.032l-.046.012-.156.053-.045.017-.113.046-.056.023-.1.048-.051.023c-.048.025-.1.046-.144.074l-.039.022-.1.059a.452.452,0,0,0-.057.037c-.029.017-.057.036-.085.054l-.008,0-.049.032c-.031.022-.063.043-.094.068s-.045.031-.068.051-.06.045-.091.07l-.049.042-.008.009L82,6.826l-.059.054-.063.059c-.028.026-.054.054-.08.08l-.074.077c-.017.02-.032.036-.048.054l-.009.011c-.017.019-.032.037-.049.059s-.039.043-.057.068-.026.032-.043.056l-.011.014-.045.059-.029.04c-.036.051-.071.1-.105.153l-.036.057c-.017.026-.032.053-.049.08l-.032.059c-.015.026-.032.056-.046.083l-.022.037-.008.015-.076.156-.028.065c-.012.026-.023.056-.036.085l-.108.221h3.633Z" transform="translate(44.111 3.196)" fill="#1e3263"></path><path id="Path_909" data-name="Path 909" d="M102.718,3.15a12.037,12.037,0,0,0-3.251-1.179,25.443,25.443,0,0,0-6-.562q-1.532.019-3.06.165c-.981.093-1.964.216-2.935.385s-1.924.355-2.876.586c-.1.025-.206.051-.309.077a.026.026,0,0,0,.009.051c9.221-.873,16.747,1.485,17.53,5.815.408,2.253-1.083,4.647-3.868,6.765a.026.026,0,0,0,.029.042,23.2,23.2,0,0,0,6.163-5.236,5.438,5.438,0,0,0,1.136-2.673,4.6,4.6,0,0,0-2.573-4.236" transform="translate(45.955 0.766)" fill="#1e3263"></path><path id="Path_910" data-name="Path 910" d="M105.672,2.486a3.2,3.2,0,0,0-2.48-2.043A10.078,10.078,0,0,0,101.874.17a25.535,25.535,0,0,0-6.008.022c-1.147.111-2.29.263-3.428.447-.715.114-1.429.241-2.139.385a.026.026,0,0,0,.006.051c1.48-.066,2.964-.1,4.443-.036a15.267,15.267,0,0,1,5.58,1.04,4.921,4.921,0,0,1,3.027,3.432,6.253,6.253,0,0,1-.362,3.3.026.026,0,0,0,.045.026l.178-.213a11.925,11.925,0,0,0,2.3-3.839,4.192,4.192,0,0,0,.159-2.3" transform="translate(49.23 0)" fill="#1e3263"></path><path id="Path_911" data-name="Path 911" d="M63.432,18.387V19.41h-1.89V24.2H60.4V19.41H58.5V18.387Z" transform="translate(31.9 10.027)" fill="#1e3263"></path><path id="Path_912" data-name="Path 912" d="M62.542,21.332A3.018,3.018,0,1,1,65.56,24.35a2.943,2.943,0,0,1-3.018-3.018m4.891,0a1.876,1.876,0,1,0-1.873,2,1.9,1.9,0,0,0,1.873-2" transform="translate(34.105 9.987)" fill="#1e3263"></path><path id="Path_913" data-name="Path 913" d="M70.354,18.387c1.321,0,1.933.743,1.933,1.663a1.373,1.373,0,0,1-.674,1.242,1.373,1.373,0,0,1,.674,1.242c0,.918-.612,1.661-1.933,1.661H67.685V18.387Zm-1.522,2.4h1.409c.55,0,.9-.236.9-.683,0-.464-.342-.691-.9-.691H68.832Zm0,2.388h1.409c.55,0,.9-.227.9-.674,0-.464-.342-.691-.9-.691H68.832Z" transform="translate(36.91 10.026)" fill="#1e3263"></path><path id="Path_914" data-name="Path 914" d="M77.692,24.2H76.475l-.569-1.287h-2.65L72.688,24.2H71.515l2.528-5.81h1.12Zm-3.981-2.31h1.742l-.867-1.978Z" transform="translate(38.998 10.026)" fill="#1e3263"></path><path id="Path_915" data-name="Path 915" d="M81.91,20.037H80.685a1.779,1.779,0,0,0-1.417-.7,1.88,1.88,0,0,0-1.854,2,1.88,1.88,0,0,0,1.854,2,1.753,1.753,0,0,0,1.417-.7H81.91a2.762,2.762,0,0,1-2.642,1.723,3.018,3.018,0,0,1,0-6.036,2.773,2.773,0,0,1,2.642,1.723" transform="translate(41.59 9.987)" fill="#1e3263"></path><path id="Path_916" data-name="Path 916" d="M86.566,20.037H85.341a1.779,1.779,0,0,0-1.417-.7,1.88,1.88,0,0,0-1.854,2,1.88,1.88,0,0,0,1.854,2,1.753,1.753,0,0,0,1.417-.7h1.225a2.762,2.762,0,0,1-2.642,1.723,3.018,3.018,0,0,1,0-6.036,2.773,2.773,0,0,1,2.642,1.723" transform="translate(44.129 9.987)" fill="#1e3263"></path><path id="Path_917" data-name="Path 917" d="M85.579,21.332A3.019,3.019,0,1,1,88.6,24.35a2.944,2.944,0,0,1-3.02-3.018m4.891,0a1.876,1.876,0,1,0-1.871,2,1.9,1.9,0,0,0,1.871-2" transform="translate(46.668 9.987)" fill="#1e3263"></path><rect id="Rectangle_1048" data-name="Rectangle 1048" width="84.826" height="0.729" transform="translate(0 30.954)" fill="#1e3263"></rect></g></svg> 