<?xml version="1.0" encoding="UTF-8"?>
<svg width="174.36mm" height="39.688mm" version="1.1" viewBox="0 0 174.36 39.688" xmlns="http://www.w3.org/2000/svg" xmlns:cc="http://creativecommons.org/ns#" xmlns:dc="http://purl.org/dc/elements/1.1/" xmlns:rdf="http://www.w3.org/1999/02/22-rdf-syntax-ns#">
	<metadata>
		<rdf:RDF>
			<cc:Work rdf:about="">
				<dc:format>image/svg+xml</dc:format>
				<dc:type rdf:resource="http://purl.org/dc/dcmitype/StillImage"/>
				<dc:title/>
			</cc:Work>
		</rdf:RDF>
	</metadata>
	<defs>
		<style>.cls-1{fill:#231f20;}
            .cls-2{fill:#0080c5;}</style>
	</defs>
	<g transform="translate(8.2575 -122.53)" stroke-width="1.5692">
		<path class="cls-1" d="m159.15 126.34c-5.0425-3.8975-14.604-3.6957-14.604-3.6957h-16.428c-1.9187 0-2.5847 0.12423-2.4578 0.93168a1.2527 1.2267 0 0 0 1.0307 0.63665 2.4103 2.3603 0 0 1 2.109 2.1118c0 1.3354 0.20614 5.528 0.20614 6.9876v25.186a2.997 2.9348 0 0 0 2.9811 2.9348h9.7996a34.14 33.432 0 0 0 12.178-2.3137 19.615 19.208 0 0 0 12.067-18.028 19.028 18.634 0 0 0-6.8819-14.752zm-16.586 31.693h-0.38057c-2.2834 0-4.6461 0-5.883-1.1957a3.8691 3.7888 0 0 1-0.93556-2.8106v-17.842c0-3.6801-0.0951-5.4037 0-9.5342a47.381 46.398 0 0 1 6.8185-0.45031c4.329 0 8.8482 0.57453 12.686 4.6584a16 15.668 0 0 1 3.8374 10.87c-0.0159 9.9845-6.3428 16.304-16.142 16.304zm-16.967 1.941a3.5044 3.4317 0 0 1-2.109-2.469c0-0.69876-0.74528-31.817-0.74528-31.817 0-1.5528 0-2.7795-0.39643-2.9348a18.711 18.323 0 0 0-3.3775-0.15528 5.6768 5.559 0 0 0-2.7591 0.26398 14.699 14.394 0 0 0-1.3796 2.9348l-2.9018 6.3199-2.8384 5.3106-4.4082 8.3696a1.443 1.413 0 0 1-2.8067 0l-4.5668-8.2454-2.8543-5.1398-3.1714-6.677a17.332 16.972 0 0 0-1.3478-2.9193 7.9285 7.764 0 0 0-3.0445-0.23292h-3.9008c-1.9187 0-2.7908 0-2.664 0.80746a1.2368 1.2112 0 0 0 1.0307 0.63665 2.6798 2.6242 0 0 1 1.5857 2.4534c0 0.69876 0 29.053-0.15857 30.295 0 0.20186 0 0.41925-0.111 0.63665a2.9811 2.9193 0 0 1-2.1248 2.5621 1.2368 1.2112 0 0 0-1.0307 0.63664c-0.12686 0.79193 0.76114 0.82299 2.6798 0.82299h6.3428c1.9187 0 2.8067 0 2.6957-0.82299a1.2368 1.2112 0 0 0-1.0307-0.63664 3.0287 2.9658 0 0 1-2.109-2.469 18.695 18.308 0 0 1-0.30128-2.1429c0-1.5528-0.09514-4.2547-0.07929-5.8541v-0.54348c0-1.5528 0-4.2547 0.09514-5.854l0.15857-6.351c0-1.5528 0.71356-1.7702 1.4906-0.35715l4.2814 7.764c0.77699 1.413 4.884 9.0218 5.6134 10.45a2.2676 2.2205 0 0 0 2.6957 1.7547c2.1566 0 2.1566-0.55901 3.0446-2.4224 0.65013-1.3665 9.8313-19.053 9.8313-19.053 0.74528-1.4286 1.3954-1.2888 1.443 0.31056 0 0 0.111 21.553 0 22.531v0.32609a2.8384 2.7795 0 0 1-1.9504 1.91 1.2527 1.2267 0 0 0-1.0307 0.63664c-0.12686 0.79193 0.76113 0.82299 2.6798 0.82299h7.9285c1.9346 0 2.8067 0 2.6957-0.82299a1.3003 1.2733 0 0 0-1.0941-0.63664z" fill="#231f20"/>
		<path class="cls-2" d="m39.323 126.54a4.9632 4.8603 0 0 1 1.7126-2.4379 2.0138 1.9721 0 0 0 1.4588-0.79193c0.14271-0.57454-0.38057-0.72982-2.4737-0.72982h-6.3428c-1.9187 0-2.8067 0-2.6798 0.82299a1.2527 1.2267 0 0 0 1.0307 0.63664c1.8236 0.4969 3.0445 1.413 2.4737 3.2764s-8.4994 24.705-8.4994 24.705c-0.30128 0.82298-1.0783 1.0559-1.3161-0.17081l-4.107-19.224c-0.34885-1.5528-0.72942-3.6025-0.87214-4.4876a1.7443 1.7081 0 0 0-1.7601-1.2733 1.8553 1.8168 0 0 0-1.7284 1.0404c-0.52328 1.0714-1.5857 3.1056-2.3151 4.5808l-10.45 19.658c-0.42814 0.72982-0.96728 0.51243-1.0466-0.35714l-1.3003-19.922c0-1.5528-0.15857-4.6584-0.14271-5.1553a2.8067 2.7485 0 0 1 2.1407-2.6553 1.3478 1.3199 0 0 0 1.0783-0.68323c0.12686-0.79193-0.80871-0.7764-2.7274-0.7764h-7.9285c-1.2686 0.0311-1.8711 0.17081-1.776 0.82298a1.2527 1.2267 0 0 0 1.0307 0.63665 2.775 2.7174 0 0 1 1.8236 1.5528 8.7689 8.587 0 0 1 0.31714 0.83851v0.26398a1.3796 1.3509 0 0 0 0 0.15528 45.541 44.596 0 0 1 0.77699 5.3572l1.7284 24.348a19.187 18.789 0 0 0 0.555 4.9534c0.49157 1.0093 2.8067 0.9472 3.7264-0.40373 0.25371-0.3882 13.304-24.379 13.304-24.379 0.76114-1.4286 1.5857-1.3044 1.9821 0.2795l4.0911 19.767a33.173 32.485 0 0 0 1.0624 4.3478c0.555 1.4286 3.3458 1.1801 4.0911-0.2174a38.834 38.028 0 0 0 1.9821-4.3944s10.656-28.727 11.1-29.985zm34.394 9.3168c-5.0901 0-9.7362 4.5497-12.797 7.9969a17.95 17.578 0 0 1 0.74528-2.9193l4.7571-15.528a2.109 2.0652 0 0 0-2.109-2.8106h-4.0118c-1.9187 0-2.8067 0-2.6957 0.82298a1.2527 1.2267 0 0 0 1.0307 0.63665c1.9028 0.52795 2.5371 2.6087 2.0297 4.8758 0-0.18633-4.7571 18.447-4.7571 18.447a12.559 12.298 0 0 1-2.997 4.8913s-5.7561 6.8789-11.56 6.8789a4.218 4.1304 0 0 1-4.6302-4.3323 17.966 17.593 0 0 1 0.444-4.146c6.0574-0.559 16.904-3.2919 16.904-10.87 0-3.1056-2.997-3.9441-5.55-3.9441-8.2139 0-16.317 9.8137-16.317 18.634 0 3.7112 1.7601 7.4845 6.9771 7.4845 9.7996 0 15.128-9.3168 15.429-9.674a26.291 25.745 0 0 0-0.47571 3.7422c0 4.0528 3.0128 5.9317 6.7392 5.9317a16.491 16.149 0 0 0 8.2932-2.5466 24.388 23.882 0 0 0 5.7085-4.6584 19.266 18.867 0 0 0 5.3121-11.879c-0.01586-4.1304-1.887-6.9721-6.4221-6.9721zm-26.465 1.8789a2.2041 2.1584 0 0 1 2.331 2.3913c0 6.0559-6.8502 8.7112-12.067 9.0528 0.84042-3.6801 5.328-11.444 9.7362-11.444zm25.815 13.168a26.862 26.304 0 0 1-4.7571 6.646 9.6569 9.4566 0 0 1-6.4379 3.1056c-2.6005 0-3.4568-2.4379-3.4568-4.6584 0-6.2112 6.9137-17.764 13.938-17.764 2.6005 0 3.3934 1.7702 3.3934 3.882a21.708 21.258 0 0 1-2.7274 8.7578z" fill="#0080c5"/>
		<path class="cls-1" d="m161.8 124.97a1.9504 1.9099 0 1 1 3.9008 0 1.9504 1.9099 0 1 1-3.9008 0zm1.9504 2.3603a2.3944 2.3447 0 1 0-2.442-2.3603 2.3944 2.3447 0 0 0 2.442 2.3447zm-0.50743-2.1739h0.47571l0.72943 1.1801h0.47571l-0.79285-1.1957a0.71356 0.69876 0 0 0 0.71356-0.74534 0.77699 0.76087 0 0 0-0.98313-0.7764h-1.0466v2.7019h0.42813zm0-0.34162v-0.85404h0.57086c0.30128 0 0.60256 0 0.60256 0.40373s-0.31714 0.43479-0.68185 0.43479h-0.49157z" fill="#231f20"/>
	</g>
</svg>
