<?xml version="1.0" standalone="no"?>
<!DOCTYPE svg PUBLIC "-//W3C//DTD SVG 20010904//EN"
 "http://www.w3.org/TR/2001/REC-SVG-20010904/DTD/svg10.dtd">
<svg version="1.0" xmlns="http://www.w3.org/2000/svg"
 width="300.000000pt" height="302.000000pt" viewBox="0 0 300.000000 302.000000"
 preserveAspectRatio="xMidYMid meet">
<metadata>
Created by potrace 1.10, written by Peter Selinger 2001-2011
</metadata>
<g transform="translate(0.000000,302.000000) scale(0.100000,-0.100000)"
fill="#000000" stroke="none">
<path d="M1415 2621 c-33 -20 -96 -57 -140 -81 -44 -23 -187 -105 -318 -182
-130 -76 -286 -164 -345 -194 -59 -31 -111 -61 -117 -67 -7 -8 -8 -210 -5
-585 l5 -574 90 -47 c50 -26 146 -82 215 -125 157 -98 126 -79 329 -196 95
-55 175 -100 177 -100 3 0 23 -12 45 -26 65 -41 127 -74 138 -74 35 0 710 379
916 515 99 65 90 5 93 609 2 362 0 543 -8 568 -14 49 -30 60 -410 285 -325
192 -550 313 -583 313 -12 0 -49 -18 -82 -39z m150 -14 c128 -64 719 -407 857
-498 21 -13 41 -33 45 -44 4 -11 7 -262 7 -558 -1 -515 -2 -539 -20 -557 -24
-24 -243 -155 -559 -335 -303 -173 -407 -226 -420 -215 -5 4 -127 75 -270 157
-143 82 -305 178 -360 212 -133 84 -231 139 -283 160 l-43 17 -2 555 c-1 304
-6 561 -10 570 -6 13 -2 18 20 23 32 8 204 101 413 224 80 47 206 119 280 160
74 41 164 94 200 118 70 47 74 47 145 11z"/>
<path d="M1430 2534 c-19 -15 -57 -37 -85 -49 -27 -13 -43 -24 -34 -24 9 -1
38 -13 65 -27 93 -50 115 -54 172 -35 90 31 113 68 69 109 -25 24 -98 52 -131
52 -11 -1 -37 -12 -56 -26z m149 -33 c39 -28 39 -37 -1 -61 -43 -26 -108 -26
-159 1 -39 20 -40 21 -23 40 9 10 23 19 29 19 7 0 19 7 26 16 18 22 87 14 128
-15z"/>
<path d="M1196 2400 c-21 -16 -57 -37 -80 -46 l-41 -17 130 -66 c71 -37 164
-89 205 -116 41 -28 78 -51 82 -53 11 -5 169 77 208 107 19 15 60 40 91 56 31
15 67 36 80 46 23 17 23 17 4 39 -20 22 -90 61 -133 74 -16 6 -30 1 -51 -16
-32 -27 -183 -108 -201 -108 -7 0 -26 12 -43 26 -33 28 -179 104 -199 104 -7
0 -30 -14 -52 -30z m110 -19 c23 -10 73 -40 112 -65 l70 -47 44 18 c49 19 135
68 160 91 33 29 99 13 148 -37 8 -8 10 -16 5 -18 -11 -4 -143 -82 -204 -121
-20 -12 -60 -34 -89 -48 l-53 -24 -102 63 c-56 35 -133 79 -170 97 -37 18 -70
37 -73 41 -5 9 83 69 100 69 6 0 30 -9 52 -19z"/>
<path d="M965 2260 c-22 -16 -59 -34 -83 -41 l-44 -12 79 -42 c166 -89 392
-219 478 -277 l90 -60 85 42 c204 100 550 308 550 331 0 7 -8 18 -17 26 -26
21 -115 63 -134 63 -9 0 -79 -38 -155 -85 -76 -47 -179 -106 -230 -132 l-91
-47 -54 36 c-90 59 -408 229 -426 227 -5 0 -26 -13 -48 -29z m138 -41 c84 -42
254 -137 341 -190 l49 -30 81 40 c45 22 95 49 111 58 17 10 57 34 90 53 33 18
85 51 116 72 31 21 67 38 80 38 27 0 101 -39 106 -56 3 -9 -215 -154 -231
-154 -2 0 -33 -17 -68 -39 -34 -21 -112 -63 -172 -94 -122 -63 -106 -64 -216
8 -36 23 -90 56 -120 72 -30 17 -84 47 -118 67 -35 20 -66 36 -68 36 -8 0
-154 93 -154 99 0 5 80 60 88 61 2 0 41 -18 85 -41z"/>
<path d="M2145 2125 c-80 -52 -421 -248 -548 -315 l-116 -61 -33 24 c-76 57
-436 266 -581 338 l-87 44 -58 -32 c-31 -17 -74 -36 -95 -43 l-37 -12 77 -37
c43 -21 222 -123 398 -226 460 -270 420 -249 458 -234 35 14 439 244 584 332
50 31 116 67 145 81 62 29 103 68 95 90 -8 20 -45 44 -104 65 l-48 18 -50 -32z
m-1285 -38 c123 -63 437 -243 518 -298 77 -52 97 -59 132 -49 34 10 107 48
330 175 191 109 198 113 279 163 39 23 80 42 92 42 30 0 88 -29 99 -51 9 -15
3 -22 -33 -44 -24 -14 -48 -25 -53 -25 -6 0 -49 -25 -98 -55 -48 -30 -89 -55
-90 -55 -2 0 -45 -25 -95 -55 -51 -30 -94 -55 -97 -55 -3 0 -18 -8 -32 -19
-15 -10 -49 -31 -77 -46 -27 -15 -86 -47 -129 -72 -44 -24 -89 -46 -100 -49
-14 -3 -53 14 -116 52 -52 31 -113 66 -135 79 -22 12 -145 84 -272 159 -128
74 -251 145 -274 156 -22 12 -39 23 -37 25 13 12 96 54 108 55 8 0 44 -15 80
-33z"/>
<path d="M575 1980 c8 -13 8 -134 1 -158 -5 -14 14 -27 97 -69 106 -52 463
-254 560 -316 l54 -35 8 -89 c4 -48 6 -234 4 -412 l-4 -323 65 -39 c35 -22 71
-38 79 -37 8 2 19 19 24 38 5 20 7 235 5 489 l-3 453 -37 32 c-30 26 -693 410
-795 460 -36 18 -67 21 -58 6z m155 -89 c272 -152 347 -195 372 -212 14 -11
28 -19 31 -19 2 0 44 -23 93 -52 49 -28 106 -60 126 -71 21 -12 48 -31 60 -45
l23 -24 3 -464 c3 -523 9 -488 -75 -439 l-43 26 0 395 c0 450 5 420 -89 482
-78 50 -427 248 -533 302 l-88 45 0 68 c0 37 3 67 8 67 4 0 55 -26 112 -59z"/>
<path d="M2310 1950 c-30 -21 -131 -81 -225 -133 -93 -52 -213 -121 -265 -154
-126 -80 -262 -153 -284 -153 -14 0 -16 -4 -10 -17 5 -10 9 -238 9 -508 0
-394 3 -489 13 -487 34 7 105 47 125 72 23 26 24 37 30 226 6 224 -1 561 -13
584 -7 11 13 25 85 62 124 63 407 226 524 301 102 66 121 93 121 167 0 50 -15
80 -38 79 -9 -1 -42 -18 -72 -39z m80 -46 c0 -62 -10 -77 -88 -128 -86 -56
-251 -156 -258 -156 -3 0 -18 -8 -32 -18 -15 -11 -67 -40 -117 -67 -157 -83
-200 -107 -209 -116 -6 -5 -10 -175 -10 -401 -1 -313 -4 -398 -15 -420 -12
-24 -64 -58 -89 -58 -6 0 -9 172 -8 474 l1 473 55 29 c30 15 125 71 210 122
161 98 167 102 340 197 58 32 123 70 145 86 60 42 75 39 75 -17z"/>
<path d="M584 1653 c0 -38 -2 -79 -6 -93 -6 -24 0 -28 100 -77 119 -59 321
-176 350 -204 25 -23 34 -136 31 -380 l-2 -182 63 -39 c73 -44 95 -47 104 -15
8 29 8 578 -1 645 -5 48 -9 55 -55 88 -27 20 -110 71 -186 113 -75 43 -189
107 -253 144 -64 37 -123 67 -131 67 -13 0 -16 -13 -14 -67z m211 -68 c77 -45
177 -102 222 -125 122 -66 169 -102 177 -140 9 -47 7 -638 -2 -644 -4 -2 -30
8 -57 24 l-48 28 1 184 c1 100 -2 223 -7 273 -8 85 -10 91 -42 118 -37 31
-197 125 -338 200 l-91 48 0 58 c0 32 3 60 6 64 9 9 30 -1 179 -88z"/>
<path d="M2306 1674 c-166 -110 -516 -304 -546 -304 -9 0 -10 -8 -4 -27 5 -16
9 -179 9 -365 0 -185 3 -339 7 -343 11 -11 137 54 150 78 15 26 23 437 11 506
l-8 44 150 76 c189 97 322 182 335 217 11 28 13 107 4 142 -9 32 -30 27 -108
-24z m85 -6 c1 -7 3 -24 4 -37 4 -36 -21 -87 -52 -109 -51 -36 -177 -107 -293
-166 -63 -32 -121 -64 -128 -71 -11 -10 -13 -49 -11 -171 3 -188 1 -305 -7
-356 -6 -37 -37 -65 -92 -82 l-21 -7 2 323 c1 178 0 329 -3 337 -3 10 9 22 35
35 80 42 363 205 449 260 92 57 115 66 117 44z"/>
<path d="M582 1393 c2 -32 2 -74 -1 -93 -6 -35 -6 -35 64 -68 111 -52 164 -92
175 -132 13 -45 13 -196 0 -219 -8 -16 -1 -24 46 -55 82 -55 101 -60 116 -33
14 24 19 361 6 407 -5 18 -37 45 -100 87 -102 67 -277 163 -298 163 -9 0 -12
-15 -8 -57z m91 -9 c140 -71 279 -166 289 -197 9 -32 9 -350 0 -365 -10 -15
-35 -8 -78 24 l-30 22 4 86 c8 167 -18 211 -170 284 l-77 37 0 68 c-1 37 1 67
4 67 3 0 29 -12 58 -26z"/>
<path d="M2329 1417 c-30 -18 -86 -54 -126 -80 -40 -26 -103 -62 -141 -80 -65
-31 -68 -35 -60 -58 6 -14 7 -110 2 -228 l-7 -204 31 6 c52 10 112 55 129 95
16 38 23 200 10 237 -6 18 2 24 58 49 143 62 194 118 195 214 0 43 -13 82 -28
82 -5 0 -33 -15 -63 -33z m61 -60 c0 -72 -38 -113 -151 -167 -41 -19 -79 -42
-85 -49 -7 -9 -11 -57 -11 -125 1 -133 -10 -161 -71 -193 l-43 -23 5 207 c3
161 7 208 18 212 7 2 15 7 18 10 3 3 23 15 45 26 22 10 67 37 100 59 83 56
158 96 167 90 4 -3 8 -24 8 -47z"/>
<path d="M585 1079 l0 -98 70 -35 c78 -41 90 -43 99 -20 11 28 6 128 -7 154
-15 30 -63 64 -120 83 l-42 14 0 -98z m89 35 c42 -20 56 -50 56 -114 0 -59
-10 -63 -76 -24 -39 23 -43 29 -39 57 2 18 4 47 4 65 1 37 7 38 55 16z"/>
<path d="M2321 1140 c-36 -22 -72 -40 -80 -40 -14 0 -15 -13 -11 -89 3 -49 8
-93 12 -97 13 -12 85 14 119 43 38 33 59 79 59 132 0 43 -15 91 -27 91 -5 -1
-37 -19 -72 -40z m65 -20 c7 -7 8 -29 4 -57 -6 -36 -16 -54 -44 -80 -20 -19
-46 -33 -61 -33 -24 0 -25 3 -25 58 0 63 8 75 65 105 37 19 48 20 61 7z"/>
</g>
</svg>
