<?xml version="1.0" encoding="utf-8" ?>
<svg xmlns="http://www.w3.org/2000/svg" xmlns:xlink="http://www.w3.org/1999/xlink" width="601" height="162">
	<clipPath id="cl_3">
		<rect y="6.1035156e-05" width="601" height="162.00002"/>
	</clipPath>
	<g clip-path="url(#cl_3)">
		<path fill="#FEB72D" transform="matrix(1 0 0 1.00264 0 6.10352e-05)" d="M254.734 61.4947C259.486 61.0877 266.595 60.8186 271.154 61.8498C272.325 62.1146 273.405 62.5076 274.068 63.5702L273.895 64.1516C272.069 65.2779 269.804 65.0643 267.738 65.0827C267.813 65.171 267.878 65.2605 267.934 65.362C269.038 67.3454 268.749 96.7936 267.879 100.061C269.173 99.9796 270.529 99.8496 271.818 100.032C272.725 100.161 273.604 100.391 274.153 101.13L273.92 101.71C272.611 102.872 271.581 102.962 269.907 102.997C269.858 102.999 269.809 103.002 269.76 103.004C266.908 103.111 251.531 103.608 250.308 102.438C249.995 101.736 249.847 101.508 249.953 100.75C251.032 99.637 253.256 99.8589 254.723 99.8303C254.732 99.799 254.742 99.7678 254.75 99.7363C255.685 96.393 255.954 67.3676 254.698 65.1658C253.87 65.1587 253.037 65.1321 252.216 65.0172C251.241 64.881 250.5 64.5523 249.9 63.7491C249.932 63.3357 249.922 63.1994 250.195 62.8707C251.251 61.602 253.206 61.6537 254.734 61.4947ZM258.243 65.3099C258.72 66.1605 258.841 67.0394 258.926 67.9967C259.309 72.2948 259.465 96.5803 258.554 99.7563Q258.525 99.8539 258.494 99.9506C260.155 99.9543 261.998 99.6418 263.624 99.9774L264.318 99.4688C264.853 95.7816 265.231 67.6783 264.093 65.3938C264.074 65.3552 264.056 65.3159 264.037 65.2771C264.004 65.2082 263.966 65.1414 263.928 65.0749C262.103 65.0972 260.024 64.9243 258.243 65.3099Z"/>
		<path fill="#FEB72D" transform="matrix(1 0 0 1.00264 0 6.10352e-05)" d="M220.723 62.0816C223.088 61.8617 225.595 61.8387 227.94 62.216C231.194 62.7395 234.45 64.1272 236.432 66.8597C237.215 66.0628 236.843 63.9413 237.341 62.7723C237.828 62.2437 238.171 62.0238 238.859 61.8149C239.493 61.9736 239.789 62.0672 240.142 62.6647C241.345 64.6995 240.801 74.4087 240.176 76.8268C239.922 77.8091 239.617 78.5645 238.729 79.0897C237.297 78.3068 237.092 75.5396 236.63 74.0548C235.58 70.6845 232.923 67.755 229.811 66.1486C228.034 65.2315 226.029 64.7417 224.077 65.388C221.725 66.1669 220.159 68.3469 219.118 70.4835C216.35 76.1596 215.939 84.0728 218.006 90.0284C218.955 92.7642 220.702 95.9464 223.443 97.2394C225.077 98.0107 227.569 98.0746 229.255 97.4862C233.328 97.0892 234.998 92.945 237.524 90.3C238.207 89.5849 238.693 89.3754 239.657 89.3577C240.15 89.7172 240.381 89.8224 240.542 90.4466C240.828 91.5555 240.025 92.8489 239.478 93.7683C236.992 97.9487 233.084 101.217 228.313 102.388Q227.802 102.509 227.285 102.605Q226.769 102.701 226.248 102.772Q225.728 102.842 225.204 102.887Q224.681 102.932 224.156 102.951Q223.631 102.971 223.106 102.964Q222.581 102.957 222.056 102.925Q221.532 102.892 221.01 102.834Q220.488 102.776 219.969 102.692Q219.451 102.609 218.937 102.5Q218.423 102.39 217.915 102.256Q217.407 102.122 216.907 101.963Q216.406 101.804 215.914 101.621Q215.421 101.437 214.939 101.23Q214.456 101.023 213.984 100.792Q213.512 100.561 213.052 100.307Q212.592 100.054 212.145 99.7778C207.575 96.9587 204.62 92.6399 203.416 87.4208C202.183 82.0775 203.124 75.7894 206.077 71.1388C209.412 65.8868 214.861 63.386 220.723 62.0816ZM216.008 66.4813C215.98 66.5182 215.954 66.5554 215.926 66.5918C215.027 67.7695 213.383 68.679 212.236 69.6436C207.471 73.6491 205.941 78.8636 206.639 84.9985C207.017 88.3203 208.459 92.8466 211.178 95.0133C212.329 95.9309 214.664 96.968 215.465 98.0986C216.94 98.5844 218.938 98.9843 220.202 99.8729C220.189 99.8191 220.177 99.7649 220.162 99.7113C219.698 98.0032 216.82 95.828 215.861 94.0924C212.754 88.472 212.342 75.3801 215.348 69.6988C215.765 68.9108 216.899 67.3196 216.79 66.4867L216.008 66.4813Z"/>
		<path fill="#FEB72D" transform="matrix(1 0 0 1.00264 0 6.10352e-05)" d="M127.004 61.7675C128.973 61.687 130.893 61.6966 132.86 61.8173C135.126 65.24 136.515 70.1255 138.086 73.9549C141.59 82.4974 145.252 91.0121 148.406 99.6915Q148.805 99.7081 149.204 99.7399C150.684 99.8591 151.868 100.053 152.883 101.271C153.141 101.581 153.064 101.687 153.032 102.085C152.974 102.133 152.916 102.182 152.854 102.226C151.07 103.51 133.622 103.352 130.857 102.844C129.885 102.665 128.86 102.401 128.267 101.551C128.329 101.22 128.3 101.089 128.568 100.865C130.064 99.611 133.123 99.8523 134.911 100.008C133.638 96.9625 132.596 91.919 130.415 89.521C129.821 88.8685 129.115 89.0109 128.314 88.9944L118.76 88.9964C117.52 92.5462 116.409 96.6483 114.404 99.8356C115.422 99.7991 116.444 99.7952 117.463 99.7906C119.405 99.7819 122.239 99.7885 123.723 101.258L123.65 101.701C120.842 103.596 113.886 103.075 110.429 103.129C108.78 103.155 106.02 103.264 104.772 102.007C104.465 101.698 104.514 101.581 104.508 101.162C104.599 101.047 104.69 100.938 104.797 100.838C106.256 99.463 108.973 99.7542 110.811 99.8378C113.188 92.4061 116.628 85.2307 119.549 78.0075C121.48 73.2318 123.029 67.881 125.429 63.3632C125.886 62.5028 126.154 62.242 127.004 61.7675ZM128.73 64.723C127.816 66.6008 127.075 68.6777 126.596 70.7132C130.564 80.3176 135.082 89.9406 138.299 99.8229L142.987 99.7948L144.066 99.7567C144.399 99.1717 144.366 98.9496 144.194 98.2973C142.834 93.1168 140.086 87.9552 138.052 83.0078C135.967 77.9333 134.284 72.6426 131.889 67.7039C131.48 66.8604 130.978 65.6606 130.144 65.1646C129.732 64.919 129.197 64.8156 128.73 64.723ZM124.417 75.5293C123.089 79.013 121.687 82.7848 119.862 86.0381L125.418 85.9629C126.716 85.8999 127.965 85.8451 129.257 86.0186C128.444 83.913 126.144 76.7184 124.417 75.5293Z"/>
		<path fill="#FEB72D" transform="matrix(1 0 0 1.00264 0 6.10352e-05)" d="M337.014 61.7885C342.379 61.437 345.579 62.9355 350.103 65.4438L350.329 65.2347L350.085 65.127C350.278 65.091 351.066 62.5326 351.898 61.9326C352.622 61.8141 352.794 61.812 353.476 62.093C354.851 64.5458 354.257 72.0353 354.025 74.9746C353.946 75.9762 353.645 77.4638 352.819 78.12C352.646 78.2572 352.435 78.1691 352.223 78.1428C349.815 75.6001 350.229 71.5143 348.222 68.7102C346.956 66.9412 344.481 65.671 342.366 65.3241C340.663 65.045 338.832 65.5449 337.451 66.5608C336.257 67.4392 335.049 68.95 334.866 70.4684C334.242 75.6575 350.12 77.0587 354.511 82.9753C356.348 85.4498 357.009 88.6547 356.556 91.6845C356.079 94.8703 354.183 97.6375 351.614 99.5277C346.954 102.957 340.169 103.409 334.607 102.578C330.672 101.261 328.281 98.5709 324.978 96.3355C325.089 96.5208 325.186 96.7073 325.262 96.9103C325.734 98.1769 325.658 100.446 325.079 101.674C324.709 102.461 324.383 102.691 323.607 102.959C323.162 102.715 322.907 102.615 322.629 102.172C321.045 99.6474 321.005 90.4128 321.717 87.411C321.932 86.5057 322.214 85.9521 323.006 85.4633C325.238 85.6992 326.804 91.3239 327.846 93.0608C328.719 94.5151 329.952 95.8857 331.26 96.9593C333.558 98.8467 336.7 100.016 339.698 99.7057C340.928 99.5783 342.079 99.1493 342.871 98.1532C343.934 96.8161 344.632 94.4318 344.377 92.7334C343.852 89.2246 330.789 86.1897 327.038 83.344C324.739 81.5994 323.275 79.3832 322.894 76.4976C322.495 73.4838 323.088 69.6075 324.98 67.1542C327.733 63.5856 332.764 62.3383 337.014 61.7885ZM331.411 66.4844L331.291 66.5976C328.76 68.9651 326.634 69.9928 326.461 73.8633Q326.443 74.304 326.468 74.7443Q326.494 75.1847 326.563 75.6203Q326.632 76.0559 326.744 76.4826Q326.855 76.9093 327.009 77.3228Q327.162 77.7363 327.356 78.1326Q327.549 78.5289 327.781 78.9041Q328.013 79.2793 328.281 79.6296Q328.549 79.98 328.85 80.3022C335.003 86.9953 348.614 82.5062 348.144 95.4464Q348.118 96.1655 348.034 96.8802L348.272 97.0709L348.431 97.0134C350.371 96.0085 352.053 93.853 352.702 91.7732C353.322 89.7898 353.032 87.8901 352.055 86.0734Q351.865 85.7193 351.643 85.3839C347.678 79.3855 338.106 80.6856 333.11 75.9416C329.62 72.6278 332.773 67.023 332.014 66.4504L331.411 66.4844Z"/>
		<path fill="#FEB72D" transform="matrix(1 0 0 1.00264 0 6.10352e-05)" d="M309.442 61.7873L310.433 61.6558C311.102 61.9436 311.248 62.0752 311.574 62.7615C312.691 65.1071 312.531 74.2755 311.565 76.7125C311.261 77.4784 310.969 77.8743 310.226 78.2067C310.192 78.1914 310.156 78.1782 310.123 78.161C308.727 77.4411 308.077 72.9443 307.602 71.4618C306.882 69.2141 305.211 67.5115 303.132 66.448C301.139 65.4288 298.946 65.1308 296.798 65.8295C295.397 66.2856 294.145 67.0932 293.472 68.45C293.03 69.3415 292.704 70.8858 293.065 71.8396C294.394 75.3528 304.862 77.6648 308.088 79.2258C310.975 80.6229 313.169 82.9408 314.215 86.0016Q314.396 86.5336 314.524 87.0808Q314.653 87.628 314.727 88.1851Q314.801 88.7422 314.82 89.3038Q314.84 89.8655 314.804 90.4264Q314.769 90.9873 314.678 91.542Q314.588 92.0967 314.444 92.64Q314.3 93.1832 314.103 93.7097Q313.907 94.2363 313.66 94.7411C311.978 98.1603 308.644 100.612 305.093 101.82C299.558 103.704 292.58 103.677 287.8 100.024C285.824 98.5138 284.155 96.591 281.906 95.4732C282.735 96.4959 283.298 97.5548 283.447 98.8772C283.555 99.8417 283.352 100.648 282.742 101.416C282.901 101.885 282.754 102.326 282.653 102.795L282.095 103.067C281.757 102.973 281.302 102.929 281.061 102.673C278.864 100.342 279.246 94.4686 279.35 91.3665C279.397 89.9514 279.537 86.9379 280.681 85.931C281.034 85.6205 281.243 85.7037 281.674 85.7431C284.162 87.3529 285.226 92.2199 287.107 94.6854C288.98 97.1408 291.825 99.3348 294.96 99.7487C296.783 99.9894 299.239 99.6513 300.709 98.4564C301.805 97.5664 302.379 95.6321 302.487 94.2718C302.991 87.9597 288.138 87.5141 282.967 81.3675C281.046 79.0837 280.473 75.9349 280.746 73.0182C281.032 69.9589 282.422 67.1762 284.816 65.2288C288.628 62.1281 294.448 61.4382 299.222 61.956C301.833 62.2391 306.209 63.35 307.966 65.5271C308.585 64.3828 308.981 63.0091 309.442 61.7873ZM289.245 66.7776C287.298 68.1529 285.208 69.636 284.755 72.146C284.334 74.4766 284.771 77.5605 286.157 79.5194C289.973 84.9133 299.02 84.1829 304.038 88.3362C306.633 90.484 305.512 96.3267 306.32 97.0133C308.242 96.2007 309.575 94.851 310.354 92.8979C311.142 90.9239 311.307 88.4728 310.457 86.4926C309.402 84.0334 306.939 82.576 304.551 81.6412C300.2 79.9379 291.733 78.5525 289.675 73.8093C288.588 71.3053 290.194 68.4586 289.81 67.2749C289.779 67.178 289.35 66.8425 289.245 66.7776Z"/>
		<path fill="#FEB72D" transform="matrix(1 0 0 1.00264 0 6.10352e-05)" d="M365.545 61.7881C371.412 61.3654 377.411 61.5982 383.295 61.5801C388.398 61.5643 394.137 60.9724 399.128 61.9917C399.156 62.0182 399.185 62.0432 399.211 62.0712C400.233 63.1578 400.117 67.7967 400.009 69.3027C399.88 71.1215 399.577 73.1451 398.135 74.4043C397.868 74.2751 397.294 74.0893 397.096 73.9008C395.798 72.6655 397.03 67.0016 396.001 65.0891C395.988 65.0659 395.975 65.0431 395.962 65.0202C390.937 65.3928 385.598 65.0467 380.538 65.0514C380.888 65.5446 381.138 66.0317 381.236 66.6346C381.689 69.4124 381.963 77.8755 380.4 80.0711C383.539 79.9486 386.814 79.8645 389.947 80.0853C390.915 77.7864 389.725 74.5585 390.992 72.5059C391.382 71.874 391.747 71.7416 392.422 71.5549C392.853 71.6936 393.135 71.8723 393.411 72.2413C395.184 74.6143 394.611 84.4499 394.157 87.6005C393.979 88.8355 393.779 90.3772 392.714 91.1714C392.307 91.1909 392.113 91.2291 391.757 91.0183C389.646 89.7656 390.716 85.1778 390.131 82.9998L390.107 82.9116C386.892 83.0315 383.929 82.8133 380.689 83.2228C380.747 83.3526 380.8 83.4843 380.84 83.6211C381.234 84.9506 381.389 86.6582 380.725 87.9115C380.986 88.2902 381.185 88.8044 381.254 89.2592C381.61 91.6314 381.869 98.1049 380.456 100.052C386.39 99.5571 392.653 99.825 398.616 99.8262C400.331 96.8026 397.582 91.076 399.766 88.3061C400.216 87.7356 400.59 87.7055 401.257 87.6173C402.16 88.2707 402.405 88.91 402.597 89.9909C403.023 92.3772 403.256 101.191 402.039 102.932C397.56 103.451 392.505 103.067 387.956 103.082C380.145 103.109 371.806 103.658 364.061 102.744C363.288 102.652 362.633 102.496 362.133 101.857C362.129 101.541 362.058 101.229 362.258 100.971C363.103 99.8846 366.12 99.8755 367.466 99.681L367.501 99.5557C368.551 95.7187 368.686 67.1921 367.484 65.0967L367.081 65.0877C365.286 65.0431 363.798 65.1142 362.454 63.7024C362.45 63.5372 362.396 63.1137 362.49 62.9995C363.386 61.9216 364.24 61.9047 365.545 61.7881ZM371.137 65.3106C372.132 67.759 372.044 96.2763 371.295 99.9907C372.713 99.8848 375.301 99.4893 376.587 99.9974C377.012 99.695 377.302 99.6298 377.394 99.0953C378.301 93.7811 377.637 87.8595 377.655 82.4686C377.672 77.208 378.131 71.7158 377.642 66.4872C377.597 66.0075 377.435 65.4692 377.167 65.066C375.18 65.0781 373.099 64.9638 371.137 65.3106Z"/>
		<path fill="#FEB72D" transform="matrix(1 0 0 1.00264 0 6.10352e-05)" d="M90.5578 64.9105C88.903 64.9976 86.9124 65.2494 85.2875 64.9503C84.386 64.7843 83.3561 64.469 82.8062 63.6981C82.8303 63.3618 82.7796 63.0895 83.0329 62.8408C85.1186 60.7923 92.3483 61.5843 95.2293 61.6504C97.102 61.6934 101.178 61.5975 102.5 62.9831L102.268 63.7151C99.9713 65.4532 96.3889 65.039 93.6493 64.9671C94.6457 77.1455 94.1511 90.6923 93.8852 102.961C91.8141 103.033 89.7455 103.169 87.7529 102.51C83.795 99.1042 80.6108 94.3431 77.359 90.2676Q71.5658 82.9041 65.3106 75.929Q65.6127 87.9285 65.4342 99.9305C67.0447 99.7712 68.9009 99.6411 70.5034 99.8584C71.639 100.013 73.2052 100.318 73.9315 101.279L73.8651 101.723C73.2098 102.377 72.2217 102.543 71.3423 102.693C68.7085 103.143 55.8442 103.722 54.2494 102.474C53.7035 102.046 53.5786 101.747 53.4897 101.1C53.5718 100.979 53.6533 100.867 53.758 100.764C55.1301 99.4156 60.0475 99.7624 61.9254 99.785C61.6099 94.8249 61.8923 89.6697 61.8624 84.687C61.8232 78.1438 61.501 71.4738 61.8758 64.9485Q61.5446 64.969 61.2128 64.976C59.4523 65.0118 55.4341 65.3517 54.2208 64.1723C54.0606 63.3921 53.9839 63.1528 54.2557 62.4066C55.3057 61.6786 57.2059 61.834 58.466 61.7803C61.7823 61.6618 65.5831 61.2153 68.8422 61.7992C69.9134 61.9911 70.7476 62.348 71.5699 63.0675C74.6872 65.7955 77.1552 69.6638 79.7653 72.8787C83.3019 77.2347 87.169 81.4728 90.3942 86.06Q90.2707 75.4836 90.5578 64.9105ZM65.2282 64.9089Q65.4199 67.608 65.5788 70.3092C70.3163 77.1099 76.2083 83.4099 81.5057 89.8017C84.2796 93.1487 86.9759 97.4199 90.2964 100.22C90.4147 97.2672 90.5748 94.3098 90.467 91.3551C86.1357 86.57 82.0848 81.654 78.054 76.6178C75.3894 73.2886 72.2443 68.2099 68.9777 65.6838C68.1825 65.0689 67.217 64.9954 66.2538 64.9455Q65.7413 64.9201 65.2282 64.9089Z"/>
		<path fill="#FEB72D" transform="matrix(1 0 0 1.00264 0 6.10352e-05)" d="M160.065 61.7622C165.923 61.2373 183.178 61.2955 188.424 63.2661C190.934 64.2086 193.178 65.8162 194.306 68.3162C195.427 70.7984 195.222 73.8104 194.266 76.3111C192.92 79.8265 190.007 82.0175 186.675 83.5178C189.504 86.4585 197.758 96.2397 198.835 99.6708C199.923 99.751 201.025 99.845 202.063 100.204C202.8 100.458 203.717 100.82 204.071 101.556L203.79 102.006C200.54 103.911 189.475 103.162 185.541 102.775C185.381 101.834 183.982 100.568 183.291 99.9365C182.936 97.7921 175.405 89.3902 173.614 87.2847Q173.942 93.6001 174.025 99.9235C175.486 99.8808 177.326 99.6606 178.689 100.286C179.261 100.548 179.319 100.734 179.526 101.287C179.348 101.71 179.298 102.065 178.876 102.295C176.464 103.607 159.195 103.327 156.3 102.483C155.622 102.285 155.029 102.135 154.686 101.498C154.769 101.39 154.853 101.288 154.953 101.194C156.244 99.982 159.178 99.8212 160.834 99.8524Q160.351 82.3854 160.834 64.9186C159.86 64.9983 158.851 65.1088 157.874 65.0284C156.822 64.9419 156.003 64.5195 155.324 63.7214C155.312 63.1887 155.321 63.134 155.691 62.7398C156.719 61.6438 158.657 61.8185 160.065 61.7622ZM164.463 65.028C163.917 67.2845 164.312 70.4335 164.326 72.7786L164.46 90.5424C164.486 93.6509 164.761 96.9959 164.42 100.079C166.334 99.9365 168.19 99.9262 170.108 100.001C170.191 99.9123 170.383 99.758 170.432 99.6563C170.807 98.8819 170.551 67.8346 170.545 64.919C168.517 65.0142 166.493 65.0234 164.463 65.028ZM179.993 84.9762C178.593 85.031 177.186 85.1146 175.784 85.0718C178.978 87.6493 187.149 99.3478 187.963 99.8059C188.475 100.094 189.784 99.9364 190.38 99.8959C191.787 99.8969 193.197 99.8805 194.604 99.9268C193.659 97.4238 185.267 86.1438 183.074 85.1028C182.254 84.7138 180.884 84.9272 179.993 84.9762ZM181.236 65.5768C183.35 67.6644 184.222 70.7192 184.231 73.6397C184.238 75.8846 183.641 78.8586 181.995 80.5141C181.683 80.828 181.344 81.1142 180.999 81.3906C182.706 81.0746 185.983 80.6248 187.031 79.1081C188.676 78.4249 190.511 76.8061 191.205 75.1309C191.813 73.6631 191.659 71.9539 191.037 70.5194C190.159 68.4902 188.386 66.9927 186.346 66.2063C184.925 65.6586 182.731 65.3038 181.236 65.5768ZM173.84 65.0633C174.158 70.5574 174.096 76.1711 173.973 81.674C175.258 81.121 177.621 80.3702 178.181 78.9999C178.197 78.9613 178.211 78.9221 178.226 78.8832C179.574 78.0886 180.484 76.6257 180.867 75.124C181.357 73.2003 180.775 71.0002 179.776 69.3297C178.395 67.0189 176.406 65.7358 173.84 65.0633Z"/>
		<path fill="#FEB72D" transform="matrix(1 0 0 1.00264 0 6.10352e-05)" d="M0 0L0.445746 0L600.486 0C600.967 0.970125 601.223 1.85726 600.873 2.93632C600.773 3.24166 600.648 3.54883 600.494 3.83099L221.955 3.82906L76.384 3.83342L29.7749 3.8372C21.2173 3.85016 12.6689 4.16013 4.11494 3.81459C5.03591 12.4855 4.41782 22.3156 4.41091 31.0873L4.39285 82.2053L4.38081 133.468C4.38151 141.322 4.9978 150.555 4.28013 158.257C20.203 157.843 36.2091 158.211 52.1423 158.21L144.835 158.203L450.858 158.221L550.551 158.211C567.182 158.21 583.87 158.517 600.493 158.202C601.302 159.522 601.367 174.117 600.9 176.065C600.819 176.402 600.669 176.708 600.486 177L0.238074 177L0 177L0 0Z"/>
		<path fill="#FEB72D" transform="matrix(1 0 0 1.00264 0 6.10352e-05)" d="M455.835 11.301C462.275 11.0219 468.787 11.2727 475.236 11.3181L507.542 11.4543L593.656 11.279C593.893 11.632 594.033 12.0095 594.104 12.4279C594.574 15.2061 594.213 18.4812 594.185 21.3196L594.081 38.1514L594.118 102.161C594.114 107.705 594.765 148.815 593.712 150.222C593.603 150.367 592.776 150.444 592.555 150.484Q545.509 151.029 498.462 150.628L471.365 150.629C465.673 150.633 459.91 150.463 454.231 150.863C454.722 150.128 454.85 149.349 454.9 148.483C455.168 143.929 455.008 139.296 455.012 134.733L454.996 109.978L455.023 32.5978C455.047 29.1748 454.424 13.7089 455.077 11.591L455.835 11.301ZM523.436 29.7933C521.051 31.9942 512.061 36.5206 508.685 38.4518C500.52 43.1219 492.486 48.1466 484.171 52.532C482.45 53.4399 480.56 54.5094 478.64 54.9004C479.069 55.6134 479.182 56.3032 479.257 57.1207C479.627 61.1787 479.5 65.3543 479.529 69.4304Q479.621 79.8545 479.552 90.2787C479.521 94.5971 480.021 102.466 479.041 106.434Q478.983 106.676 478.909 106.913C484.367 108.393 494.351 115.386 499.747 118.547L523.866 132.409C526.591 131.779 567.661 108.106 568.543 106.759C568.602 106.669 568.602 106.665 568.645 106.581C569.215 105.236 569.41 57.4017 568.692 55.6271C568.632 55.4801 568.566 55.3393 568.491 55.1999C567.672 53.7191 528.323 30.8752 524.903 29.8456C524.406 29.6959 523.944 29.719 523.436 29.7933Z"/>
		<path fill="#FEB72D" transform="matrix(1 0 0 1.00264 0 6.10352e-05)" d="M481.92 96.7182C482.496 96.6699 483.047 96.6447 483.602 96.8323C485.419 97.4461 489.139 99.102 490.027 100.856Q490.101 101.046 490.152 101.244C490.684 103.356 491.025 106.831 489.853 108.754C489.836 108.766 489.82 108.783 489.801 108.79C488.371 109.296 483.526 105.892 481.883 105.233C482.004 104.999 482.113 104.758 482.186 104.504C482.679 102.786 482.751 98.2748 481.92 96.7182Z"/>
		<path fill="#FEB72D" transform="matrix(1 0 0 1.00264 0 6.10352e-05)" d="M523.101 33.0222C523.288 32.9998 523.473 32.9979 523.661 32.9924C525.12 32.9502 527.479 33.8742 528.763 34.5959C529.759 35.1563 530.593 35.9251 530.924 37.0437C530.893 37.6366 530.805 38.0573 530.41 38.5204C529.246 39.8871 525.831 41.008 524.066 41.1605C521.017 40.6277 518.391 38.1506 515.277 37.463C517.951 36.5395 520.739 34.5849 523.101 33.0222Z"/>
		<path fill="#FEB72D" transform="matrix(1 0 0 1.00264 0 6.10352e-05)" d="M564.981 96.4252C565.469 96.405 565.557 96.4014 565.978 96.6399C566.142 96.9729 566.284 97.3173 566.36 97.6819C566.856 100.057 566.967 102.898 565.607 105.023C564.16 107.285 561.205 108.486 558.684 109.047C557.205 108.016 558.571 102.289 557.601 100.347C560.318 99.472 562.713 98.1504 564.981 96.4252Z"/>
		<path fill="#FEB72D" transform="matrix(1 0 0 1.00264 0 6.10352e-05)" d="M564.883 84.0968L565.738 84.1568C565.999 84.3607 566.179 84.5937 566.287 84.909C566.841 86.5257 566.746 90.2083 565.999 91.7212C564.355 95.0508 558.107 97.8136 554.728 98.9391C554.889 99.2163 554.991 99.5527 555.073 99.8617C555.742 102.386 555.699 109.187 554.349 111.456C553.148 113.473 550.228 114.867 548.011 115.428L547.558 115.379C545.933 112.475 549.192 97.7739 546.942 94.3306C553.25 92.0787 558.992 87.2762 564.883 84.0968Z"/>
		<path fill="#FEB72D" transform="matrix(1 0 0 1.00264 0 6.10352e-05)" d="M482.343 83.8033C482.539 83.8129 482.731 83.8384 482.918 83.9008C485.462 84.7502 500.006 93.1019 500.903 94.8985C501.257 95.8929 501.329 96.9903 501.384 98.0364C501.537 100.932 502.022 113.145 500.387 114.961L500.292 115.05C498.365 115.478 494.797 111.936 492.7 111.195C492.966 110.83 493.16 110.43 493.268 109.99C493.848 107.616 493.999 101.062 492.765 98.9314L492.613 98.5556C490.08 96.3324 484.934 93.6128 481.663 92.7254C482.943 90.53 481.933 86.387 482.343 83.8033Z"/>
		<path fill="#FEB72D" transform="matrix(1 0 0 1.00264 0 6.10352e-05)" d="M512.059 39.1864C512.818 39.0345 513.408 39.0748 514.13 39.3623C516.199 40.1859 522.58 43.126 523.474 45.1787C523.556 45.1553 523.638 45.1321 523.719 45.1055C526.553 44.1788 532.214 41.1386 534.352 39.023Q535.133 39.1736 535.888 39.422C537.692 40.0263 541.332 41.6856 542.217 43.4616C542.206 43.5 542.197 43.539 542.183 43.5767C541.653 45.0703 536.604 47.3148 535.083 48.0402C532.792 50.3207 526.731 53.3822 523.653 54.3857C523.643 54.3624 523.634 54.3388 523.623 54.316C522.577 52.1277 507.469 44.4087 504.644 43.481C507.019 42.8459 510.154 40.7516 512.059 39.1864Z"/>
		<path fill="#FEB72D" transform="matrix(1 0 0 1.00264 0 6.10352e-05)" d="M481.968 71.4747C482.022 71.4766 482.076 71.4794 482.13 71.4805C482.795 71.4942 483.319 71.6059 483.923 71.877C487.976 73.6961 491.939 76.3727 495.809 78.5942C500.668 81.3831 506.395 84.0159 510.75 87.529C510.831 87.594 510.914 87.6563 510.992 87.7244C511.771 88.4035 511.844 90.3071 511.925 91.2751C512.345 96.3257 512.086 101.581 512.103 106.656C512.117 110.922 512.517 115.734 511.889 119.948C511.806 120.503 511.624 120.946 511.259 121.376C509.444 121.737 505.548 118.204 503.505 117.548C503.603 117.39 503.695 117.228 503.77 117.057C504.436 115.556 504.189 94.3404 503.526 92.7052C503.497 92.6377 503.453 92.519 503.405 92.4533C502.036 90.5593 484.297 80.9299 481.67 80.2221C481.741 80.1037 481.805 79.9906 481.864 79.8657C482.565 78.3846 482.523 73.0142 481.968 71.4747Z"/>
		<path fill="#FEB72D" transform="matrix(1 0 0 1.00264 0 6.10352e-05)" d="M545.059 45.3506C545.539 45.3555 546.046 45.378 546.514 45.4952C548.382 45.9632 552.14 47.8192 553.167 49.515C553.123 49.6041 553.08 49.6938 553.031 49.78C551.994 51.5908 527.016 65.7568 523.615 66.7462C522.223 64.8823 505.642 55.4819 502.759 54.3296C500.531 52.3135 496.819 50.819 494.119 49.4049C496.279 48.9803 500.493 46.9905 501.859 45.2491C505.041 46.5286 522.32 55.4334 523.797 57.4979C527.684 56.2038 540.997 48.1482 545.059 45.3506Z"/>
		<path fill="#FEB72D" transform="matrix(1 0 0 1.00264 0 6.10352e-05)" d="M564.801 71.4748L565.79 71.5015C566.113 71.7594 566.224 72.0139 566.332 72.3996C566.902 74.4394 567.052 78.0893 565.913 79.9637C564.601 82.1225 546.765 91.795 543.818 92.4938C543.877 92.5782 543.933 92.6597 543.982 92.7504C544.93 94.4915 544.813 115.114 544.043 117.547C544.026 117.595 544.015 117.645 543.992 117.69C543.172 119.307 538.91 121.165 537.153 121.552L536.728 121.563C535.259 119.481 538.301 92.5838 535.615 88.0632C540.284 86.704 560.371 74.6654 564.801 71.4748Z"/>
		<path fill="#FEB72D" transform="matrix(1 0 0 1.00264 0 6.10352e-05)" d="M564.49 59.1465C565.071 59.0839 565.34 58.9801 565.869 59.2515Q566.231 59.8022 566.402 60.4384C566.822 62.0112 566.788 65.4145 565.977 66.8492C565.934 67.0083 565.882 67.1627 565.8 67.3065C564.672 69.2962 536.329 85.4313 532.956 86.4692C533.115 86.6954 533.247 86.9296 533.339 87.1917C534.098 89.3513 534.047 121.868 533.231 123.434C532.07 125.663 529.406 126.787 527.15 127.546C526.802 127.838 526.637 127.826 526.2 127.878C525.804 127.482 525.714 127.049 525.658 126.506C525.286 122.905 525.811 118.819 525.89 115.174C525.991 110.569 526.558 83.9482 525.28 81.5519C529.963 80.3457 540.481 73.1675 545.265 70.4046C551.616 66.7375 558.558 63.4702 564.49 59.1465Z"/>
		<path fill="#FEB72D" transform="matrix(1 0 0 1.00264 0 6.10352e-05)" d="M481.804 59.1463C481.927 59.1351 481.906 59.1344 482.013 59.1331C482.053 59.1327 482.092 59.1336 482.132 59.1329C482.974 59.117 483.654 59.4175 484.402 59.7703C487.673 61.3143 490.836 63.3407 494.004 65.1135C500.323 68.6509 506.622 72.1777 512.855 75.869C515.484 77.4266 519.81 79.4752 521.972 81.5178C522.907 82.4013 522.841 84.6433 522.901 85.9C523.29 94.0442 522.988 102.353 522.99 110.515C522.991 115.638 523.439 121.292 522.887 126.365C522.835 126.843 522.654 127.185 522.331 127.54C522.241 127.593 522.217 127.615 522.124 127.643C520.644 128.083 516.043 124.66 514.595 123.848C515.25 121.318 515.461 88.4491 514.662 86.567C514.642 86.5276 514.627 86.4857 514.602 86.4487C513.58 84.8829 484.625 68.6742 481.654 67.8984Q481.766 67.6988 481.852 67.4865C482.522 65.8575 482.483 60.7822 481.804 59.1463Z"/>
		<path fill="#FEB72D" transform="matrix(1 0 0 1.00264 0 6.10352e-05)" d="M556.268 51.5385C558.077 52.0386 561.344 53.0999 562.68 54.444C563.338 55.106 563.382 55.4713 563.372 56.3393C562.245 58.5424 558.377 59.8562 556.176 60.7764C556.159 60.8172 556.144 60.8587 556.126 60.8987C555.901 61.3863 527.169 78.1545 524.749 78.8862L524.603 78.9297C523.913 79.1397 523.108 78.6244 522.504 78.3124C519.886 76.9605 517.389 75.262 514.849 73.7636L496.852 63.3395C492.239 60.6777 487.578 57.786 482.687 55.6736C485.579 54.937 488.304 53.3222 490.857 51.8083C491.235 51.7872 491.608 51.8108 491.975 51.9092C494.774 52.6611 522.437 68.5122 523.385 70.159C526.258 69.2653 553.965 53.455 556.268 51.5385Z"/>
	</g>
</svg>
